<svg width="10" height="11" viewBox="0 0 10 11" fill="none" xmlns="http://www.w3.org/2000/svg">
<path d="M8.69911 1.71061H8.86077C8.94669 1.71048 9.02986 1.74129 9.09545 1.79755C9.16104 1.85381 9.20479 1.93186 9.21888 2.01777L9.46027 3.48742C9.4689 3.54003 9.46613 3.59392 9.45214 3.64533C9.43816 3.69675 9.4133 3.74446 9.37929 3.78515C9.34529 3.82585 9.30294 3.85855 9.25521 3.88099C9.20748 3.90343 9.1555 3.91506 9.10289 3.91509H8.54398L8.10178 10.1875C8.09518 10.2802 8.05419 10.3669 7.98708 10.4302C7.91996 10.4934 7.83169 10.5286 7.74004 10.5285H2.61921C2.52744 10.5287 2.43899 10.4937 2.37172 10.4304C2.30445 10.3671 2.26336 10.2803 2.25675 10.1875L1.816 3.91509H1.25927C1.20665 3.91506 1.15467 3.90343 1.10694 3.88099C1.05921 3.85855 1.01687 3.82585 0.982862 3.78515C0.948854 3.74446 0.923995 3.69675 0.91001 3.64533C0.896026 3.59392 0.893251 3.54003 0.90188 3.48742L1.14328 2.01777C1.15737 1.93186 1.20111 1.85381 1.2667 1.79755C1.33229 1.74129 1.41547 1.71048 1.50139 1.71061H1.66015L1.58403 0.634833C1.58044 0.584467 1.58714 0.533893 1.60369 0.486267C1.62025 0.438641 1.64631 0.394986 1.68026 0.358027C1.7142 0.321068 1.7553 0.291598 1.80098 0.271457C1.84666 0.251316 1.89595 0.240937 1.94576 0.240967H8.41349C8.46331 0.240937 8.51259 0.251316 8.55828 0.271457C8.60396 0.291598 8.64505 0.321068 8.679 0.358027C8.71294 0.394986 8.73901 0.438641 8.75556 0.486267C8.77212 0.533893 8.77881 0.584467 8.77523 0.634833L8.69911 1.71061ZM7.97274 1.71061L8.02421 0.975791H2.33505L2.38651 1.71061H7.97274ZM1.76381 3.18026H8.67519L8.55413 2.44544H1.80803L1.68697 3.18026H1.76381ZM2.54237 3.91509L2.9563 9.79368H7.40295L7.81688 3.91509H2.54237Z" fill="#164864"/>
</svg>
