<svg width="200" height="200" viewBox="0 0 200 200" fill="none" xmlns="http://www.w3.org/2000/svg">
<g clip-path="url(#clip0_1423_5026)">
<path d="M180 56.6666H20V180H180V56.6666Z" fill="#F2E7D5"/>
<path d="M30 56.6666H20V180H30V56.6666Z" fill="#F7F1E6"/>
<path d="M196.667 16.6667V43.3334C196.667 50.7 190.7 56.6667 183.333 56.6667H16.6666C9.29992 56.6667 3.33325 50.7 3.33325 43.3334V16.6667C3.33325 9.30004 9.29992 3.33337 16.6666 3.33337H183.333C190.7 3.33337 196.667 9.30004 196.667 16.6667Z" fill="#164864"/>
<path d="M13.3333 50V23.3334C13.3333 15.9667 19.2999 10 26.6666 10H193.333C193.87 10 194.383 10.0967 194.903 10.1567C192.62 6.10337 188.323 3.33337 183.333 3.33337H16.6666C9.29992 3.33337 3.33325 9.30004 3.33325 16.6667V43.3334C3.33325 50.1634 8.47992 55.7234 15.0966 56.51C14.0066 54.5767 13.3333 52.3767 13.3333 50Z" fill="#248CC5"/>
<path d="M196.667 193.333V196.667H3.33325V193.333C3.33325 185.967 9.29992 180 16.6666 180H183.333C190.7 180 196.667 185.967 196.667 193.333Z" fill="#164864"/>
<path d="M29.9999 180H16.6666C9.29992 180 3.33325 185.967 3.33325 193.333V196.667H16.6666V193.333C16.6666 185.967 22.6333 180 29.9999 180Z" fill="#248CC5"/>
<path d="M126.667 56.6666V70C126.667 73.6666 123.667 76.6666 120 76.6666H80.0002C76.3335 76.6666 73.3335 73.6666 73.3335 70V56.6666H126.667Z" fill="#164864"/>
<path d="M133.333 173.333V180H66.6667V173.333C66.6667 169.667 69.6667 166.667 73.3334 166.667H126.667C130.333 166.667 133.333 169.667 133.333 173.333Z" fill="#164864"/>
<path d="M126.667 106.667V146.667C126.667 157.7 117.7 166.667 106.667 166.667H93.3335C82.3002 166.667 73.3335 157.7 73.3335 146.667V106.667H126.667Z" fill="#248CC5" fill-opacity="0.85"/>
<path d="M46.5334 100.267C50.2889 100.267 53.3334 97.2223 53.3334 93.4668C53.3334 89.7112 50.2889 86.6667 46.5334 86.6667C42.7779 86.6667 39.7334 89.7112 39.7334 93.4668C39.7334 97.2223 42.7779 100.267 46.5334 100.267Z" fill="#248CC5" fill-opacity="0.85"/>
<path d="M46.5332 103.6C40.9466 103.6 36.3999 99.0533 36.3999 93.4666C36.3999 87.8799 40.9466 83.3333 46.5332 83.3333C52.1199 83.3333 56.6666 87.8799 56.6666 93.4666C56.6666 99.0533 52.1199 103.6 46.5332 103.6ZM46.5332 89.9999C44.6232 89.9999 43.0666 91.5566 43.0666 93.4666C43.0666 95.3766 44.6232 96.9333 46.5332 96.9333C48.4432 96.9333 49.9999 95.3766 49.9999 93.4666C49.9999 91.5566 48.4432 89.9999 46.5332 89.9999Z" fill="#132C47"/>
<path d="M46.5334 126.933C50.2889 126.933 53.3334 123.889 53.3334 120.133C53.3334 116.378 50.2889 113.333 46.5334 113.333C42.7779 113.333 39.7334 116.378 39.7334 120.133C39.7334 123.889 42.7779 126.933 46.5334 126.933Z" fill="#248CC5" fill-opacity="0.85"/>
<path d="M46.5332 130.267C40.9466 130.267 36.3999 125.72 36.3999 120.133C36.3999 114.547 40.9466 110 46.5332 110C52.1199 110 56.6666 114.547 56.6666 120.133C56.6666 125.72 52.1199 130.267 46.5332 130.267ZM46.5332 116.667C44.6232 116.667 43.0666 118.223 43.0666 120.133C43.0666 122.043 44.6232 123.6 46.5332 123.6C48.4432 123.6 49.9999 122.043 49.9999 120.133C49.9999 118.223 48.4432 116.667 46.5332 116.667Z" fill="#132C47"/>
<path d="M166.667 86.6667V93.3334C166.667 97.0001 163.667 100 160 100H143.333V93.3334C143.333 89.6667 146.333 86.6667 150 86.6667H166.667Z" fill="#248CC5" fill-opacity="0.85"/>
<path d="M160 103.333H143.333C141.493 103.333 140 101.84 140 99.9999V93.3333C140 87.8199 144.487 83.3333 150 83.3333H166.667C168.507 83.3333 170 84.8266 170 86.6666V93.3333C170 98.8466 165.513 103.333 160 103.333ZM146.667 96.6666H160C161.837 96.6666 163.333 95.1699 163.333 93.3333V89.9999H150C148.163 89.9999 146.667 91.4966 146.667 93.3333V96.6666Z" fill="#132C47"/>
<path d="M200 43.3333V16.6667C200 7.47667 192.523 0 183.333 0H16.6667C7.47667 0 0 7.47667 0 16.6667V43.3333C0 52.5233 7.47667 60 16.6667 60V176.667C7.47667 176.667 0 184.143 0 193.333V196.667C0 198.507 1.49333 200 3.33333 200H196.667C198.507 200 200 198.507 200 196.667V193.333C200 184.143 192.523 176.667 183.333 176.667V60C192.523 60 200 52.5233 200 43.3333ZM193.333 193.333H6.66667C6.66667 187.82 11.1533 183.333 16.6667 183.333H183.333C188.847 183.333 193.333 187.82 193.333 193.333ZM43.3333 156.667H23.3333V60H70V70C70 74.34 72.7967 78.0067 76.6667 79.3867V86.6667C76.6667 88.5067 78.16 90 80 90C81.84 90 83.3333 88.5067 83.3333 86.6667V80H116.667V86.6667C116.667 88.5067 118.16 90 120 90C121.84 90 123.333 88.5067 123.333 86.6667V79.3867C127.203 78.0067 130 74.34 130 70V60H176.667V156.667H156.667C154.827 156.667 153.333 158.16 153.333 160C153.333 161.84 154.827 163.333 156.667 163.333H176.667V176.667H136.667V173.333C136.667 167.82 132.18 163.333 126.667 163.333H122.967C124.923 161.42 126.527 159.163 127.717 156.667H133.333C138.847 156.667 143.333 152.18 143.333 146.667V123.333C143.333 117.82 138.847 113.333 133.333 113.333H130V106.667C130 104.827 128.507 103.333 126.667 103.333H73.3333C71.4933 103.333 70 104.827 70 106.667V146.667C70 153.193 72.7 159.093 77.0333 163.333H73.3333C67.82 163.333 63.3333 167.82 63.3333 173.333V176.667H23.3333V163.333H43.3333C45.1733 163.333 46.6667 161.84 46.6667 160C46.6667 158.16 45.1733 156.667 43.3333 156.667ZM76.6667 70V60H123.333V70C123.333 71.8367 121.837 73.3333 120 73.3333H80C78.1633 73.3333 76.6667 71.8367 76.6667 70ZM76.6667 146.667V110H123.333V146.667C123.333 155.857 115.857 163.333 106.667 163.333H93.3333C84.1433 163.333 76.6667 155.857 76.6667 146.667ZM130 120H133.333C135.17 120 136.667 121.497 136.667 123.333V146.667C136.667 148.503 135.17 150 133.333 150H129.733C129.89 148.907 130 147.8 130 146.667V120ZM126.667 170C128.503 170 130 171.497 130 173.333V176.667H70V173.333C70 171.497 71.4967 170 73.3333 170H126.667ZM16.6667 53.3333C11.1533 53.3333 6.66667 48.8467 6.66667 43.3333V16.6667C6.66667 11.1533 11.1533 6.66667 16.6667 6.66667H183.333C188.847 6.66667 193.333 11.1533 193.333 16.6667V43.3333C193.333 48.8467 188.847 53.3333 183.333 53.3333H16.6667Z" fill="#132C47"/>
<path d="M103.333 42.8C110.402 42.8 116.133 37.0692 116.133 30C116.133 22.9307 110.402 17.2 103.333 17.2C96.264 17.2 90.5332 22.9307 90.5332 30C90.5332 37.0692 96.264 42.8 103.333 42.8Z" fill="#248CC5" fill-opacity="0.85"/>
<path d="M40 42.8C47.0692 42.8 52.8 37.0692 52.8 30C52.8 22.9307 47.0692 17.2 40 17.2C32.9307 17.2 27.2 22.9307 27.2 30C27.2 37.0692 32.9307 42.8 40 42.8Z" fill="#248CC5" fill-opacity="0.85"/>
<path d="M160 42.8C167.069 42.8 172.8 37.0692 172.8 30C172.8 22.9307 167.069 17.2 160 17.2C152.931 17.2 147.2 22.9307 147.2 30C147.2 37.0692 152.931 42.8 160 42.8Z" fill="#248CC5" fill-opacity="0.85"/>
<path d="M103.333 13.8667C95.5833 13.8667 89.0967 19.3667 87.5567 26.6667H83.3333C81.4933 26.6667 80 28.16 80 30C80 31.84 81.4933 33.3334 83.3333 33.3334H87.5567C89.0967 40.6334 95.5833 46.1334 103.333 46.1334C112.227 46.1334 119.467 38.8967 119.467 30C119.467 21.1034 112.227 13.8667 103.333 13.8667ZM103.333 39.4667C99.29 39.4667 95.86 36.9067 94.5033 33.3334H96.6667C98.5067 33.3334 100 31.84 100 30C100 28.16 98.5067 26.6667 96.6667 26.6667H94.5033C95.86 23.0934 99.29 20.5334 103.333 20.5334C108.553 20.5334 112.8 24.78 112.8 30C112.8 35.22 108.553 39.4667 103.333 39.4667Z" fill="#132C47"/>
<path d="M60 26.6667H55.7767C54.2367 19.3667 47.75 13.8667 40 13.8667C31.1067 13.8667 23.8667 21.1034 23.8667 30C23.8667 38.8967 31.1034 46.1334 40 46.1334C47.75 46.1334 54.2367 40.6334 55.7767 33.3334H60C61.84 33.3334 63.3334 31.84 63.3334 30C63.3334 28.16 61.84 26.6667 60 26.6667ZM40 39.4667C34.78 39.4667 30.5334 35.22 30.5334 30C30.5334 24.78 34.78 20.5334 40 20.5334C44.0434 20.5334 47.4734 23.0934 48.83 26.6667H46.6667C44.8267 26.6667 43.3334 28.16 43.3334 30C43.3334 31.84 44.8267 33.3334 46.6667 33.3334H48.83C47.4734 36.9067 44.0434 39.4667 40 39.4667Z" fill="#132C47"/>
<path d="M160 13.8667C152.25 13.8667 145.763 19.3667 144.223 26.6667H140C138.16 26.6667 136.667 28.16 136.667 30C136.667 31.84 138.16 33.3334 140 33.3334H144.223C145.763 40.6334 152.25 46.1334 160 46.1334C168.893 46.1334 176.133 38.8967 176.133 30C176.133 21.1034 168.893 13.8667 160 13.8667ZM160 39.4667C155.957 39.4667 152.527 36.9067 151.17 33.3334H153.333C155.173 33.3334 156.667 31.84 156.667 30C156.667 28.16 155.173 26.6667 153.333 26.6667H151.17C152.527 23.0934 155.957 20.5334 160 20.5334C165.22 20.5334 169.467 24.78 169.467 30C169.467 35.22 165.22 39.4667 160 39.4667Z" fill="#132C47"/>
</g>
<defs>
<clipPath id="clip0_1423_5026">
<rect width="200" height="200" fill="white"/>
</clipPath>
</defs>
</svg>
