<svg width="154" height="200" viewBox="0 0 154 200" fill="none" xmlns="http://www.w3.org/2000/svg">
<path d="M123.382 196.868H29.8542L16.4929 83.2986H136.744L123.382 196.868Z" fill="#164864"/>
<path d="M132.789 116.91H20.4475L27.5209 177.036H125.715L132.789 116.91Z" fill="#F6F6F7"/>
<path d="M135.146 96.8685L136.743 83.2986H16.4922L18.0883 96.8685L29.8535 196.868H69.3422C45.2719 174.525 29.8535 140.187 29.8535 101.67C29.8535 100.061 29.8887 98.4622 29.9422 96.8685H135.146Z" fill="#248CC5"/>
<path d="M20.4475 117.119L27.5209 177.244H125.715L132.789 117.119H20.4475Z" fill="white"/>
<path d="M27.5204 177.036H52.3774C40.834 160.056 33.1028 139.441 30.6766 116.91H20.4465L27.5204 177.036Z" fill="#ECEDEF"/>
<path d="M133.403 63.2568H19.8328L26.5136 36.5345H126.722L133.403 63.2568Z" fill="#B3B9BF"/>
<path d="M150.105 59.9167H3.13159V86.639H150.105V59.9167Z" fill="#ECEDEF"/>
<path d="M20.0417 59.9167H3.13159V86.639H20.0417V59.9167Z" fill="#D9DCDF"/>
<path d="M100.001 59.9167H79.9583C79.9583 68.8242 79.9583 77.7316 79.9583 86.639H100.33C100.036 77.7339 100.004 68.7507 100.001 59.9167Z" fill="#F6F6F7"/>
<path d="M63.2567 46.5553H36.5344V59.9166H63.2567V46.5553Z" fill="#424F5E"/>
<path d="M63.2567 46.5553H36.5344V53.2358H63.2567V46.5553Z" fill="#68727E"/>
<path d="M150.104 56.785H135.013L129.76 35.7748C129.411 34.3807 128.159 33.403 126.722 33.403H26.5137C25.0769 33.403 23.8242 34.3807 23.4758 35.7748L18.223 56.785H3.13164C1.40195 56.785 0 58.1869 0 59.9166V86.6389C0 88.3682 1.40156 89.7705 3.13164 89.7705H14.1012L26.7437 197.234C26.9293 198.811 28.266 200 29.8535 200H123.382C124.969 200 126.306 198.811 126.491 197.234L131.6 153.811C131.802 152.093 130.574 150.537 128.856 150.335C127.139 150.133 125.582 151.361 125.38 153.079L122.93 173.904H30.3055L23.9683 120.042H129.267L126.952 139.718C126.75 141.435 127.978 142.992 129.696 143.194C129.821 143.208 129.944 143.216 130.066 143.216C131.632 143.216 132.985 142.044 133.172 140.45L139.134 89.7713H150.104C151.834 89.7713 153.236 88.3693 153.236 86.6396V59.9174C153.236 58.1873 151.834 56.785 150.104 56.785ZM28.9582 39.6662H124.277L128.557 56.7854H66.3882V46.5557C66.3882 44.8264 64.9867 43.424 63.2566 43.424H36.5344C34.8047 43.424 33.4027 44.826 33.4027 46.5557V56.7854H24.6789L28.9582 39.6662ZM60.1254 56.785H39.666V49.6869H60.1254V56.785ZM122.194 180.167L120.598 193.737H32.6383L31.0422 180.167H122.194ZM146.973 83.5072H53.2359C51.5062 83.5072 50.1043 84.9092 50.1043 86.6389C50.1043 88.3682 51.5058 89.7705 53.2359 89.7705H132.829L130.004 113.779H23.2316L20.407 89.7705H36.5344C38.264 89.7705 39.666 88.3685 39.666 86.6389C39.666 84.9096 38.2644 83.5072 36.5344 83.5072H6.26289V63.0479H146.973V83.5072Z" fill="black"/>
<path d="M74.4032 28.7278C75.677 30.0013 77.8274 29.9157 78.9985 28.5481C80.0477 27.3227 79.9723 25.4391 78.8325 24.2993C76.8184 22.2852 77.1196 21.3778 79.5539 17.6423C81.9149 14.0181 85.8668 7.95205 78.8325 0.917285C77.609 -0.305762 75.6266 -0.305762 74.4036 0.917285C73.1805 2.14033 73.1805 4.12314 74.4036 5.3458C77.7145 8.65673 76.8243 10.3575 74.3063 14.2231C72.1805 17.486 68.6227 22.947 74.4032 28.7278Z" fill="black"/>
<path d="M98.0458 28.7278C99.3196 30.0013 101.47 29.9157 102.641 28.5481C103.69 27.3227 103.615 25.4391 102.475 24.2993C100.461 22.2852 100.762 21.3778 103.197 17.6423C105.557 14.0181 109.509 7.95205 102.475 0.917285C101.252 -0.305762 99.2692 -0.305762 98.0461 0.917285C96.8231 2.14033 96.8231 4.12314 98.0461 5.3458C101.357 8.65673 100.467 10.3575 97.9489 14.2231C95.8231 17.486 92.2653 22.947 98.0458 28.7278Z" fill="black"/>
<path d="M51.2816 28.7278C52.5554 30.0013 54.7058 29.9157 55.8769 28.5481C56.9261 27.3227 56.8507 25.4391 55.7109 24.2993C53.6968 22.2852 53.998 21.3778 56.4324 17.6423C58.7933 14.0181 62.7452 7.95205 55.7109 0.917285C54.4874 -0.305762 52.505 -0.305762 51.282 0.917285C50.0589 2.14033 50.0589 4.12314 51.282 5.3458C54.5929 8.65673 53.7027 10.3575 51.1847 14.2231C49.0589 17.486 45.5011 22.947 51.2816 28.7278Z" fill="black"/>
</svg>
